<svg width="250" height="150" viewBox="0 0 512 512" fill="none" xmlns="http://www.w3.org/2000/svg">
<path d="M2.27713 286.344C0.340586 292.452 -0.363913 298.885 0.204491 305.268C0.772894 311.651 2.60289 317.857 5.58834 323.527C8.5738 329.198 12.6553 334.219 17.5962 338.3C22.537 342.38 28.2389 345.44 34.3711 347.3L377.391 451.355C412.321 461.955 444.954 429.32 434.356 394.39L330.3 51.3709C328.44 45.2387 325.381 39.5368 321.3 34.5959C317.219 29.6551 312.198 25.5736 306.528 22.5881C300.857 19.6026 294.651 17.7726 288.268 17.2042C281.885 16.6358 275.453 17.3403 269.344 19.2769C206.69 39.1421 149.725 73.7712 103.248 120.248C56.7715 166.725 22.1424 223.689 2.27713 286.344Z" fill="#FCF2D0"/>
<path d="M108.105 115.48C59.1996 162.772 22.831 221.491 2.27713 286.344C0.340586 292.453 -0.363913 298.885 0.204491 305.268C0.772894 311.651 2.60289 317.857 5.58834 323.527C8.5738 329.198 12.6553 334.219 17.5962 338.3C22.537 342.38 28.2389 345.44 34.3711 347.3L149.277 382.155C85.5471 314.6 69.8321 200.855 108.105 115.48Z" fill="#F2D98D"/>
<path d="M67.4652 221.844C67.4652 223.32 67.0273 224.764 66.2071 225.991C65.3868 227.219 64.2209 228.176 62.8569 228.741C61.4928 229.306 59.9919 229.454 58.5438 229.165C57.0957 228.877 55.7656 228.166 54.7216 227.122C53.6776 226.078 52.9666 224.748 52.6786 223.3C52.3906 221.852 52.5384 220.351 53.1034 218.987C53.6684 217.623 54.6252 216.457 55.8528 215.637C57.0804 214.817 58.5237 214.379 60.0002 214.379C60.9805 214.379 61.9513 214.572 62.857 214.947C63.7628 215.322 64.5858 215.872 65.279 216.565C65.9722 217.258 66.5221 218.081 66.8972 218.987C67.2723 219.893 67.4653 220.864 67.4652 221.844Z" fill="#FCF2D0"/>
<path d="M204.844 99.3908C204.844 100.867 204.406 102.31 203.586 103.538C202.766 104.766 201.6 105.723 200.236 106.288C198.872 106.853 197.371 107 195.923 106.712C194.475 106.424 193.145 105.713 192.101 104.669C191.057 103.625 190.346 102.295 190.058 100.847C189.769 99.3991 189.917 97.8981 190.482 96.534C191.047 95.17 192.004 94.0041 193.232 93.1839C194.459 92.3636 195.903 91.9258 197.379 91.9258C199.359 91.9263 201.257 92.713 202.657 94.1128C204.057 95.5127 204.844 97.4111 204.844 99.3908Z" fill="#F2D98D"/>
<path d="M35.0272 323.98C33.0558 330.2 32.3389 336.75 32.9179 343.249C33.4969 349.748 35.3604 356.068 38.4003 361.842C41.4402 367.616 45.596 372.729 50.6268 376.884C55.6576 381.04 61.4632 384.155 67.7072 386.05L417 492.008C452.57 502.797 485.8 469.571 475.008 434.008L369.051 84.7069C367.156 78.463 364.041 72.6573 359.885 67.6265C355.73 62.5957 350.617 58.4399 344.843 55.4C339.069 52.3601 332.75 50.4967 326.25 49.9176C319.751 49.3386 313.201 50.0556 306.981 52.0269C243.18 72.2552 185.173 107.518 137.846 154.845C90.5184 202.172 55.2557 260.179 35.0272 323.98Z" fill="#FCF2D0"/>
<path d="M230.273 85.1128C137.098 136.907 67.248 222.362 35.0272 323.98C33.0558 330.2 32.3389 336.75 32.9179 343.249C33.4969 349.748 35.3604 356.068 38.4003 361.842C41.4402 367.616 45.596 372.728 50.6268 376.884C55.6576 381.039 61.4632 384.155 67.7072 386.05L309.973 459.542C202.219 386.414 201.1 155.707 230.273 85.1128Z" fill="#F2D98D"/>
<path d="M332.457 111.871C332.457 113.347 332.019 114.79 331.199 116.018C330.379 117.246 329.213 118.203 327.849 118.768C326.485 119.333 324.984 119.48 323.536 119.192C322.088 118.904 320.758 118.193 319.714 117.149C318.67 116.105 317.959 114.775 317.671 113.327C317.383 111.879 317.53 110.378 318.095 109.014C318.66 107.65 319.617 106.484 320.845 105.664C322.072 104.844 323.516 104.406 324.992 104.406C325.972 104.406 326.943 104.599 327.849 104.974C328.755 105.349 329.578 105.899 330.271 106.592C330.964 107.285 331.514 108.108 331.889 109.014C332.264 109.92 332.457 110.89 332.457 111.871Z" fill="#F2D98D"/>
<path d="M105.664 343.223C105.664 344.699 105.226 346.143 104.406 347.37C103.586 348.598 102.42 349.555 101.056 350.12C99.6918 350.685 98.1909 350.832 96.7428 350.544C95.2947 350.256 93.9646 349.545 92.9206 348.501C91.8766 347.457 91.1656 346.127 90.8776 344.679C90.5895 343.231 90.7374 341.73 91.3024 340.366C91.8674 339.002 92.8242 337.836 94.0518 337.016C95.2794 336.196 96.7227 335.758 98.1991 335.758C99.1796 335.757 100.15 335.95 101.056 336.325C101.962 336.7 102.785 337.25 103.479 337.943C104.172 338.637 104.722 339.46 105.097 340.366C105.472 341.272 105.665 342.242 105.664 343.223Z" fill="#FCF2D0"/>
<path d="M149.664 241.223C149.664 242.699 149.226 244.143 148.406 245.37C147.586 246.598 146.42 247.555 145.056 248.12C143.692 248.685 142.191 248.832 140.743 248.544C139.295 248.256 137.965 247.545 136.921 246.501C135.877 245.457 135.166 244.127 134.878 242.679C134.59 241.231 134.737 239.73 135.302 238.366C135.867 237.002 136.824 235.836 138.052 235.016C139.279 234.196 140.723 233.758 142.199 233.758C143.18 233.757 144.15 233.95 145.056 234.325C145.962 234.7 146.785 235.25 147.479 235.943C148.172 236.637 148.722 237.46 149.097 238.366C149.472 239.272 149.665 240.242 149.664 241.223Z" fill="#FCF2D0"/>
<path d="M415.555 355.832C415.555 357.308 415.117 358.752 414.297 359.979C413.477 361.207 412.311 362.164 410.947 362.729C409.583 363.294 408.082 363.442 406.634 363.154C405.186 362.865 403.855 362.155 402.811 361.111C401.767 360.067 401.056 358.736 400.768 357.288C400.48 355.84 400.628 354.339 401.193 352.975C401.758 351.611 402.715 350.445 403.943 349.625C405.17 348.805 406.614 348.367 408.09 348.367C410.07 348.367 411.968 349.154 413.368 350.554C414.768 351.954 415.554 353.852 415.555 355.832Z" fill="#F2D98D"/>
<path d="M239.727 380.66C239.726 382.136 239.288 383.579 238.467 384.806C237.646 386.033 236.48 386.989 235.116 387.554C233.752 388.118 232.251 388.265 230.803 387.977C229.356 387.688 228.026 386.977 226.982 385.933C225.939 384.889 225.228 383.559 224.94 382.111C224.653 380.663 224.801 379.162 225.366 377.798C225.931 376.434 226.888 375.269 228.115 374.449C229.343 373.629 230.786 373.191 232.262 373.191C233.243 373.191 234.214 373.385 235.119 373.76C236.025 374.136 236.848 374.686 237.542 375.379C238.235 376.073 238.784 376.896 239.16 377.802C239.535 378.708 239.727 379.679 239.727 380.66Z" fill="#FCF2D0"/>
<path d="M434.656 460.852C434.656 462.328 434.218 463.772 433.398 464.999C432.578 466.227 431.412 467.184 430.048 467.749C428.684 468.314 427.183 468.461 425.735 468.173C424.287 467.885 422.957 467.174 421.913 466.13C420.869 465.086 420.158 463.756 419.87 462.308C419.581 460.86 419.729 459.359 420.294 457.995C420.859 456.631 421.816 455.465 423.044 454.645C424.271 453.825 425.715 453.387 427.191 453.387C428.171 453.387 429.142 453.58 430.048 453.955C430.954 454.33 431.777 454.88 432.47 455.573C433.163 456.266 433.713 457.089 434.088 457.995C434.463 458.901 434.656 459.871 434.656 460.852Z" fill="#F2D98D"/>
<path d="M413.215 426.34C409.928 426.338 406.687 425.578 403.742 424.117C389.758 417.207 373.226 418.328 355.73 419.517C330.43 421.232 298.941 423.372 280.261 393.486C263.425 366.549 282.061 333.771 300.077 302.072C313.807 277.924 330.893 247.872 322.632 234.521C321.687 233.001 320.616 231.275 314.323 232.169C299.452 234.278 276.803 249.302 256.623 270.439C233.904 294.239 216.823 322.377 209.775 347.639C208.235 353.097 204.593 357.722 199.648 360.499C194.703 363.276 188.858 363.978 183.396 362.452C177.933 360.926 173.299 357.297 170.509 352.359C167.719 347.421 167.002 341.578 168.513 336.112C187.079 269.632 256.313 197.135 308.298 189.76C329.911 186.686 348.407 194.787 359.048 211.979C380.693 246.944 357.648 287.479 337.314 323.249C330.404 335.409 323.877 346.89 319.939 356.683C315.849 366.847 316.525 370.429 316.639 370.867C321.053 377.84 328.776 378.418 352.823 376.781C373.116 375.406 398.374 373.691 422.718 385.719C427.052 387.863 430.533 391.409 432.596 395.782C434.659 400.155 435.182 405.097 434.08 409.805C432.979 414.513 430.317 418.709 426.528 421.713C422.739 424.716 418.045 426.35 413.21 426.348L413.215 426.34Z" fill="#D2996F"/>
<path d="M209.781 347.633C214.969 329.051 225.594 308.918 239.886 290.094C238.542 264.461 240.511 240.629 243.741 223.794C210.085 252.677 179.854 295.513 168.518 336.107C167.762 338.816 167.546 341.648 167.884 344.441C168.222 347.233 169.106 349.932 170.487 352.383C171.868 354.834 173.718 356.988 175.931 358.724C178.145 360.46 180.678 361.743 183.388 362.499C186.097 363.256 188.929 363.472 191.721 363.134C194.514 362.796 197.213 361.912 199.663 360.531C202.114 359.15 204.269 357.3 206.005 355.087C207.741 352.873 209.024 350.339 209.78 347.63L209.781 347.633Z" fill="#C47B46"/>
<path d="M373.293 300.66C371.797 300.66 370.335 300.213 369.095 299.376C367.856 298.539 366.894 297.35 366.335 295.963C365.776 294.575 365.645 293.052 365.958 291.589C366.271 290.127 367.015 288.791 368.093 287.754C379.187 277.09 387.722 259.922 392.132 239.41C396.332 219.871 396.425 198.582 392.386 181C392.084 179.682 392.144 178.307 392.559 177.021C392.974 175.734 393.73 174.583 394.745 173.691C395.76 172.798 396.998 172.197 398.328 171.95C399.657 171.703 401.028 171.82 402.296 172.289C434.234 184.089 478.667 245.445 478.667 289.676C478.667 291.665 477.877 293.573 476.47 294.979C475.064 296.386 473.156 297.176 471.167 297.176C469.178 297.176 467.27 296.386 465.864 294.979C464.457 293.573 463.667 291.665 463.667 289.676C463.667 256.086 433.683 212.067 409.628 193.696C411.216 210.033 410.261 226.518 406.796 242.563C401.765 265.963 391.714 285.852 378.496 298.563C377.099 299.91 375.234 300.662 373.293 300.66Z" fill="#89D47F"/>
<path d="M512 304.184C512 312.26 509.606 320.155 505.119 326.871C500.632 333.586 494.255 338.82 486.793 341.911C479.332 345.002 471.121 345.811 463.2 344.235C455.279 342.66 448.003 338.771 442.292 333.06C436.581 327.349 432.692 320.073 431.117 312.152C429.541 304.23 430.35 296.02 433.441 288.558C436.532 281.097 441.766 274.719 448.481 270.233C455.197 265.746 463.092 263.351 471.168 263.352C481.997 263.352 492.383 267.654 500.04 275.312C507.698 282.969 512 293.355 512 304.184Z" fill="#E3748E"/>
<path d="M414.125 290.828C414.124 298.904 411.729 306.798 407.242 313.512C402.755 320.226 396.377 325.459 388.916 328.549C381.455 331.639 373.245 332.447 365.325 330.871C357.404 329.295 350.129 325.406 344.419 319.695C338.709 313.984 334.821 306.709 333.245 298.788C331.67 290.868 332.479 282.658 335.57 275.197C338.66 267.736 343.894 261.36 350.609 256.873C357.323 252.387 365.218 249.992 373.293 249.992C378.656 249.992 383.966 251.048 388.92 253.1C393.874 255.153 398.376 258.161 402.167 261.953C405.959 265.745 408.966 270.247 411.018 275.201C413.07 280.155 414.126 285.465 414.125 290.828Z" fill="#E3748E"/>
<path d="M408.09 312.191C363.578 325.867 345.996 273.484 361.981 251.591C355.605 253.429 349.774 256.794 344.991 261.393C340.209 265.993 336.619 271.688 334.533 277.987C332.447 284.286 331.927 290.998 333.019 297.543C334.111 304.088 336.782 310.268 340.799 315.549C344.817 320.829 350.062 325.051 356.078 327.849C362.095 330.647 368.703 331.936 375.33 331.605C381.957 331.275 388.404 329.334 394.112 325.951C399.82 322.568 404.618 317.845 408.09 312.191Z" fill="#DE5C6E"/>
<path d="M505.965 325.551C461.453 339.227 443.871 286.844 459.856 264.951C453.48 266.789 447.649 270.154 442.866 274.753C438.084 279.353 434.494 285.048 432.408 291.347C430.322 297.646 429.802 304.358 430.894 310.903C431.986 317.448 434.657 323.628 438.674 328.909C442.692 334.19 447.937 338.411 453.953 341.209C459.97 344.007 466.578 345.296 473.205 344.965C479.832 344.635 486.279 342.694 491.987 339.311C497.695 335.928 502.493 331.205 505.965 325.551Z" fill="#DE5C6E"/>
</svg>
