<svg width="250" height="150" viewBox="0 0 512 512" fill="none" xmlns="http://www.w3.org/2000/svg">
<path d="M156.554 313.99L16.7927 453.752C11.1628 459.382 8 467.018 8 474.98C8 482.942 11.1628 490.577 16.7927 496.207C22.4226 501.837 30.0584 505 38.0202 505C45.9821 505 53.6178 501.837 59.2477 496.207L199.01 356.445L156.554 313.99Z" fill="#D6948C"/>
<path d="M475.459 211.663C492.534 185.83 499.927 154.792 496.332 124.035C492.737 93.2778 478.385 64.7816 455.813 43.5824C433.24 22.3831 403.901 9.84558 372.979 8.18547C342.057 6.52536 311.543 15.8495 286.831 34.5102C269.054 23.161 247.778 18.6077 226.913 21.6866C206.048 24.7656 186.995 35.27 173.254 51.2702C135.337 36.0272 89.6539 43.0422 56.2249 76.4502C37.8826 95.1478 26.8772 119.819 25.2182 145.959C23.5593 172.098 31.3575 197.963 47.1889 218.829C2.5639 285.986 43.8199 377.391 124.623 387.508C130.538 433.308 162.449 466.303 201.197 478.12C216.682 482.895 233.044 484.12 249.067 481.704C265.091 479.288 280.364 473.293 293.753 464.165C390.747 517.675 490.881 426.201 456.853 329.792C511.032 314.892 522.627 242.483 475.453 211.663H475.459Z" fill="#FFDBE0"/>
<path d="M222 345.206C198.632 314.405 187.121 276.227 189.57 237.642C192.019 199.057 208.265 162.64 235.34 135.04C284.685 85.7264 352.117 75.3704 408.087 97.8714C424.207 79.0181 445.446 65.2409 469.233 58.2074C447.98 31.1713 416.975 13.5458 382.872 9.11473C348.769 4.68364 314.289 13.8003 286.833 34.5074C269.055 23.158 247.779 18.6048 226.914 21.6843C206.048 24.7639 186.995 35.2692 173.254 51.2704C135.337 36.0274 89.6539 43.0424 56.2249 76.4504C37.8826 95.148 26.8772 119.819 25.2182 145.959C23.5593 172.099 31.3575 197.963 47.1889 218.829C2.5639 285.986 43.8199 377.391 124.623 387.508C130.538 433.308 162.449 466.303 201.197 478.12C194.762 455.789 193.289 432.321 196.883 409.36C200.476 386.4 209.049 364.503 222 345.206Z" fill="#FFB5C0"/>
</svg>
