<svg width="512" height="512" viewBox="0 0 512 512" fill="none" xmlns="http://www.w3.org/2000/svg">
<path d="M472.915 305.642H168.731C162.326 305.642 156.183 308.186 151.654 312.715C147.125 317.244 144.581 323.387 144.581 329.792C144.581 336.197 147.125 342.34 151.654 346.869C156.183 351.398 162.326 353.942 168.731 353.942H472.915C479.32 353.942 485.462 351.398 489.991 346.869C494.52 342.34 497.065 336.197 497.065 329.792C497.065 323.387 494.52 317.244 489.991 312.715C485.462 308.186 479.32 305.642 472.915 305.642Z" fill="#FCF2D0"/>
<path d="M338.431 305.642H168.731C162.326 305.642 156.183 308.186 151.654 312.715C147.125 317.244 144.581 323.387 144.581 329.792C144.581 336.197 147.125 342.34 151.654 346.869C156.183 351.398 162.326 353.942 168.731 353.942H346.978C323.88 344.708 327.673 314.579 338.431 305.642Z" fill="#F2D98D"/>
<path d="M477.993 294.544H163.653C160.954 294.544 158.297 293.87 155.924 292.584C153.552 291.299 151.537 289.441 150.063 287.18C148.59 284.919 147.703 282.325 147.485 279.635C147.267 276.945 147.723 274.243 148.813 271.774C157.891 251.199 172.754 233.707 191.594 221.428C210.434 209.148 232.437 202.61 254.926 202.61H386.72C409.208 202.61 431.212 209.147 450.052 221.427C468.892 233.707 483.755 251.199 492.833 271.774C493.922 274.243 494.379 276.945 494.16 279.635C493.942 282.325 493.056 284.919 491.582 287.18C490.108 289.441 488.094 291.299 485.721 292.584C483.348 293.87 480.692 294.544 477.993 294.544Z" fill="#A3DEFE"/>
<path d="M260.901 202.61H254.928C232.439 202.611 210.436 209.149 191.597 221.428C172.757 233.708 157.893 251.2 148.815 271.774C147.725 274.243 147.269 276.946 147.488 279.636C147.706 282.326 148.593 284.92 150.067 287.181C151.541 289.442 153.556 291.3 155.93 292.585C158.303 293.871 160.96 294.544 163.659 294.544H266.681C247.095 270.431 241.786 232.901 260.901 202.61Z" fill="#7ACEFA"/>
<path d="M497.536 312.189L448.923 308.101C441.415 307.47 433.867 307.491 426.364 308.164L382.141 312.144C375.027 312.785 367.872 312.839 360.75 312.304L317.301 309.048C311.048 308.58 304.77 308.563 298.516 308.997L247.782 312.54C242.336 312.918 236.873 312.954 231.423 312.649L185.443 310.063C179.2 309.712 172.941 309.812 166.713 310.363L145.481 312.231C142.66 312.479 139.839 311.759 137.482 310.189C135.125 308.619 133.374 306.293 132.516 303.594C129.832 295.139 129.832 286.061 132.516 277.606L132.524 277.579C133.379 274.885 135.126 272.562 137.476 270.992C139.827 269.422 142.641 268.697 145.458 268.938L182.036 272.055C188.286 272.589 194.567 272.67 200.829 272.297L264.235 268.516C268.992 268.234 273.76 268.212 278.52 268.45L334.92 271.294C339.854 271.54 344.798 271.507 349.729 271.194L390.788 268.577C395.894 268.253 401.015 268.229 406.124 268.507L455.347 271.187C461.184 271.504 467.036 271.428 472.863 270.96L497.57 268.968C500.588 268.725 503.592 269.59 506.019 271.401C508.446 273.212 510.131 275.845 510.758 278.808L510.766 278.843C512.406 286.594 512.406 294.603 510.766 302.355C510.136 305.324 508.445 307.961 506.009 309.772C503.573 311.583 500.56 312.442 497.536 312.189Z" fill="#7ACEFA"/>
<path d="M477.993 365.04H163.653C160.954 365.04 158.297 365.714 155.924 366.999C153.552 368.285 151.537 370.143 150.063 372.404C148.59 374.665 147.703 377.258 147.485 379.949C147.267 382.639 147.723 385.341 148.813 387.81C157.892 408.384 172.756 425.875 191.595 438.153C210.435 450.432 232.438 456.97 254.926 456.97H386.72C409.208 456.97 431.211 450.433 450.051 438.154C468.89 425.875 483.754 408.384 492.833 387.81C493.922 385.341 494.379 382.639 494.16 379.949C493.942 377.258 493.056 374.665 491.582 372.404C490.108 370.143 488.094 368.285 485.721 366.999C483.348 365.714 480.692 365.04 477.993 365.04Z" fill="#A3DEFE"/>
<path d="M266.681 456.97H254.927C232.439 456.97 210.436 450.432 191.596 438.153C172.757 425.875 157.893 408.384 148.814 387.81C147.724 385.341 147.268 382.639 147.486 379.949C147.705 377.258 148.591 374.665 150.064 372.404C151.538 370.143 153.553 368.285 155.926 366.999C158.299 365.714 160.955 365.04 163.654 365.04H248.416C232.579 403.56 243.79 431.642 266.681 456.97Z" fill="#7ACEFA"/>
<path d="M497.536 347.396L448.923 351.482C441.415 352.112 433.867 352.09 426.364 351.416L382.141 347.436C375.027 346.795 367.872 346.741 360.75 347.276L317.301 350.532C311.048 351.002 304.77 351.019 298.516 350.583L247.782 347.044C242.337 346.662 236.873 346.626 231.423 346.935L185.443 349.521C179.2 349.87 172.941 349.77 166.713 349.221L145.479 347.35C142.657 347.102 139.836 347.823 137.479 349.394C135.122 350.964 133.371 353.291 132.514 355.991C129.83 364.445 129.83 373.522 132.514 381.975L132.522 382.002C133.378 384.696 135.124 387.019 137.474 388.589C139.825 390.159 142.639 390.884 145.456 390.643L182.034 387.526C188.284 386.992 194.565 386.911 200.827 387.284L264.233 391.065C268.99 391.347 273.758 391.369 278.518 391.131L334.918 388.287C339.852 388.041 344.796 388.074 349.727 388.387L390.786 391.004C395.892 391.328 401.013 391.352 406.122 391.074L455.345 388.394C461.182 388.077 467.034 388.153 472.861 388.621L497.568 390.613C500.586 390.856 503.589 389.992 506.016 388.181C508.443 386.371 510.128 383.739 510.756 380.777L510.764 380.738C512.404 372.988 512.404 364.98 510.764 357.23C510.136 354.261 508.445 351.623 506.009 349.812C503.573 348.001 500.56 347.142 497.536 347.396Z" fill="#7ACEFA"/>
<path d="M409.208 237.411C409.208 238.925 408.759 240.405 407.919 241.664C407.078 242.923 405.882 243.904 404.484 244.484C403.085 245.064 401.546 245.215 400.061 244.92C398.576 244.625 397.212 243.896 396.141 242.825C395.071 241.755 394.342 240.391 394.047 238.906C393.751 237.421 393.903 235.882 394.483 234.483C395.062 233.084 396.044 231.889 397.303 231.048C398.562 230.207 400.042 229.759 401.556 229.759C403.585 229.759 405.531 230.566 406.966 232.001C408.401 233.436 409.207 235.382 409.208 237.411Z" fill="#7ACEFA"/>
<path d="M281.989 418.657C281.989 420.171 281.541 421.651 280.7 422.91C279.859 424.169 278.663 425.15 277.265 425.73C275.866 426.31 274.327 426.461 272.842 426.166C271.357 425.871 269.993 425.142 268.923 424.071C267.852 423.001 267.123 421.637 266.828 420.152C266.532 418.667 266.684 417.128 267.264 415.729C267.843 414.33 268.825 413.135 270.084 412.294C271.343 411.453 272.823 411.005 274.337 411.005C276.366 411.005 278.312 411.812 279.747 413.247C281.182 414.681 281.989 416.628 281.989 418.657Z" fill="#7ACEFA"/>
<path d="M382.021 431.923C382.021 433.436 381.572 434.916 380.731 436.174C379.89 437.433 378.695 438.413 377.297 438.993C375.899 439.572 374.36 439.723 372.876 439.428C371.392 439.133 370.028 438.404 368.958 437.334C367.888 436.264 367.159 434.9 366.864 433.416C366.569 431.931 366.72 430.393 367.299 428.995C367.878 427.597 368.859 426.401 370.118 425.561C371.376 424.72 372.855 424.271 374.369 424.271C376.398 424.272 378.344 425.078 379.779 426.513C381.214 427.948 382.02 429.894 382.021 431.923Z" fill="#7ACEFA"/>
<path d="M261.931 102.751L46.8407 317.841C42.3493 322.377 39.8367 328.507 39.8524 334.89C39.868 341.274 42.4105 347.391 46.9241 351.906C51.4376 356.42 57.5549 358.963 63.9384 358.979C70.3218 358.996 76.4521 356.484 80.9887 351.993L296.083 136.901C298.325 134.658 300.104 131.996 301.317 129.066C302.531 126.137 303.155 122.996 303.155 119.825C303.155 116.654 302.53 113.514 301.317 110.584C300.103 107.654 298.324 104.992 296.082 102.75C293.839 100.508 291.177 98.7289 288.247 97.5154C285.317 96.3019 282.177 95.6774 279.006 95.6775C275.835 95.6776 272.695 96.3023 269.765 97.5159C266.835 98.7296 264.173 100.508 261.931 102.751Z" fill="#FCF2D0"/>
<path d="M166.837 197.845L46.8368 317.845C42.3454 322.381 39.8328 328.511 39.8485 334.895C39.8641 341.278 42.4066 347.396 46.9202 351.91C51.4337 356.424 57.551 358.967 63.9345 358.983C70.3179 359 76.4482 356.488 80.9848 351.997L207.028 225.954C184.173 235.755 165.548 211.771 166.837 197.845Z" fill="#F2D98D"/>
<path d="M257.673 91.31L35.4007 313.583C33.4927 315.491 31.1387 316.893 28.5519 317.662C25.9652 318.431 23.2276 318.542 20.5871 317.985C17.9466 317.428 15.4867 316.222 13.4303 314.474C11.374 312.727 9.78615 310.494 8.81074 307.978C0.681399 287.01 -1.17732 264.131 3.46082 242.126C8.09897 220.121 19.0339 199.939 34.9347 184.036L128.126 90.845C144.029 74.9445 164.21 64.0094 186.215 59.3704C208.22 54.7314 231.098 56.5886 252.067 64.716C254.583 65.6919 256.816 67.2801 258.563 69.3367C260.311 71.3934 261.517 73.8536 262.074 76.4943C262.631 79.1351 262.52 81.873 261.751 84.46C260.983 87.0471 259.581 89.4015 257.673 91.31Z" fill="#89D47F"/>
<path d="M39.1567 179.814L34.9337 184.037C19.0331 199.94 8.09827 220.122 3.46013 242.127C-1.17801 264.132 0.680599 287.01 8.80973 307.978C9.78514 310.494 11.373 312.727 13.4293 314.474C15.4857 316.222 17.9455 317.428 20.586 317.985C23.2265 318.542 25.9642 318.431 28.5509 317.662C31.1377 316.893 33.4917 315.491 35.3997 313.583L108.251 240.731C77.3527 237.532 47.0637 214.751 39.1567 179.814Z" fill="#5EC783"/>
<path d="M283.97 89.966L246.701 121.454C240.945 126.317 235.623 131.67 230.795 137.454L202.342 171.54C197.763 177.022 192.742 182.118 187.33 186.778L154.301 215.192C149.548 219.279 145.097 223.706 140.985 228.438L107.614 266.817C104.031 270.935 100.192 274.825 96.1218 278.462L61.7818 309.146C57.1205 313.312 52.7655 317.809 48.7508 322.601L35.0638 338.939C33.2442 341.11 30.7395 342.596 27.9623 343.152C25.1852 343.709 22.3013 343.303 19.7858 342.001C11.9088 337.92 5.48955 331.5 1.41075 323.622L1.39475 323.595C0.0952796 321.085 -0.312054 318.208 0.239649 315.436C0.791353 312.664 2.26929 310.162 4.43075 308.341L32.5008 284.681C37.298 280.639 41.7968 276.255 45.9618 271.564L88.1258 224.056C91.2871 220.491 94.6425 217.103 98.1768 213.908L140.068 176.037C143.733 172.724 147.205 169.204 150.468 165.494L177.652 134.615C181.035 130.773 184.641 127.133 188.452 123.715L225.152 90.809C229.502 86.9041 233.585 82.7124 237.375 78.262L253.435 59.384C255.397 57.0781 258.132 55.566 261.129 55.1304C264.125 54.6947 267.178 55.3654 269.716 57.017L269.751 57.037C276.391 61.3576 282.052 67.0204 286.372 73.661C288.027 76.2046 288.697 79.2653 288.254 82.2677C287.812 85.2702 286.288 88.0078 283.97 89.966Z" fill="#5EC783"/>
<path d="M307.521 141.161L85.2507 363.431C83.3418 365.339 81.9392 367.694 81.1702 370.281C80.4011 372.868 80.2898 375.606 80.8465 378.247C81.4031 380.888 82.61 383.348 84.3578 385.405C86.1056 387.462 88.3391 389.05 90.8557 390.025C111.823 398.154 134.702 400.011 156.706 395.372C178.711 390.733 198.892 379.798 214.794 363.896L307.985 270.701C323.885 254.8 334.821 234.619 339.46 212.616C344.099 190.612 342.241 167.734 334.114 146.767C333.138 144.251 331.55 142.017 329.494 140.269C327.437 138.522 324.977 137.315 322.336 136.758C319.695 136.201 316.957 136.312 314.37 137.081C311.783 137.85 309.429 139.252 307.521 141.161Z" fill="#89D47F"/>
<path d="M223.106 355.583L214.794 363.896C198.892 379.796 178.71 390.732 156.706 395.37C134.702 400.009 111.823 398.152 90.8557 390.024C88.3396 389.048 86.1068 387.46 84.3594 385.403C82.6121 383.347 81.4054 380.887 80.8488 378.246C80.2923 375.605 80.4033 372.867 81.172 370.281C81.9406 367.694 83.3425 365.339 85.2507 363.431L145.185 303.501C161.224 341.935 189.009 353.86 223.106 355.583Z" fill="#5EC783"/>
<path d="M308.864 114.864L277.38 152.126C272.517 157.881 267.164 163.203 261.38 168.032L227.301 196.489C221.815 201.064 216.718 206.085 212.06 211.501L183.642 244.528C179.553 249.28 175.125 253.73 170.392 257.841L132.017 291.216C127.896 294.796 124.006 298.632 120.368 302.701L89.6838 337.041C85.5183 341.706 81.0209 346.064 76.2268 350.08L59.8918 363.771C57.7218 365.591 56.2363 368.095 55.6803 370.872C55.1243 373.649 55.5307 376.533 56.8328 379.048C60.9123 386.924 67.3315 393.343 75.2078 397.423L75.2308 397.439C77.7408 398.738 80.6182 399.146 83.3903 398.594C86.1624 398.042 88.6642 396.563 90.4848 394.401L114.149 366.331C118.191 361.534 122.575 357.035 127.266 352.87L174.774 310.706C178.339 307.545 181.726 304.189 184.922 300.655L222.793 258.764C226.105 255.099 229.626 251.626 233.336 248.364L264.215 221.18C268.056 217.798 271.694 214.192 275.11 210.38L308.02 173.68C311.924 169.329 316.115 165.246 320.567 161.457L339.446 145.401C341.752 143.438 343.264 140.703 343.699 137.707C344.135 134.71 343.464 131.658 341.813 129.12L341.793 129.085C337.472 122.445 331.809 116.783 325.168 112.464C322.625 110.808 319.564 110.137 316.562 110.579C313.559 111.021 310.822 112.545 308.864 114.864Z" fill="#5EC783"/>
<path d="M289.646 254.638C289.646 256.152 289.198 257.632 288.357 258.891C287.516 260.15 286.321 261.131 284.923 261.711C283.524 262.29 281.985 262.442 280.5 262.147C279.016 261.852 277.652 261.124 276.581 260.054C275.51 258.984 274.781 257.62 274.485 256.135C274.19 254.651 274.341 253.112 274.92 251.713C275.499 250.314 276.479 249.118 277.738 248.277C278.996 247.436 280.476 246.986 281.99 246.986C284.019 246.987 285.966 247.793 287.401 249.228C288.837 250.663 289.644 252.609 289.646 254.638Z" fill="#5EC783"/>
<path d="M47.4187 245.067C47.4183 246.581 46.969 248.06 46.1277 249.319C45.2863 250.577 44.0907 251.558 42.6919 252.137C41.2932 252.716 39.7542 252.867 38.2695 252.571C36.7849 252.276 35.4213 251.546 34.3511 250.476C33.281 249.405 32.5523 248.041 32.2574 246.556C31.9625 245.071 32.1144 243.532 32.6941 242.134C33.2738 240.736 34.2551 239.54 35.514 238.7C36.773 237.859 38.2529 237.41 39.7667 237.411C40.7719 237.411 41.7673 237.609 42.6959 237.994C43.6246 238.379 44.4683 238.943 45.1789 239.654C45.8895 240.364 46.4531 241.209 46.8374 242.137C47.2217 243.066 47.4192 244.062 47.4187 245.067Z" fill="#89D47F"/>
<path d="M95.8008 163.872C95.8012 165.386 95.3526 166.866 94.5117 168.125C93.6708 169.384 92.4755 170.365 91.0768 170.945C89.6781 171.525 88.139 171.676 86.6541 171.381C85.1692 171.086 83.8052 170.357 82.7346 169.286C81.6641 168.216 80.935 166.852 80.6398 165.367C80.3445 163.882 80.4963 162.343 81.0758 160.944C81.6554 159.545 82.6367 158.35 83.8957 157.509C85.1547 156.668 86.6348 156.22 88.1488 156.22C90.1782 156.22 92.1243 157.027 93.5593 158.461C94.9943 159.896 95.8005 161.843 95.8008 163.872Z" fill="#5EC783"/>
<path d="M207.29 332.106C207.289 333.62 206.84 335.099 205.999 336.358C205.158 337.616 203.962 338.597 202.564 339.176C201.165 339.755 199.627 339.906 198.142 339.611C196.657 339.315 195.294 338.586 194.223 337.516C193.153 336.446 192.424 335.082 192.129 333.598C191.833 332.113 191.985 330.574 192.564 329.176C193.143 327.777 194.124 326.582 195.382 325.741C196.64 324.9 198.12 324.45 199.634 324.45C200.639 324.45 201.635 324.648 202.564 325.032C203.493 325.417 204.337 325.981 205.048 326.692C205.759 327.403 206.322 328.247 206.707 329.176C207.092 330.105 207.29 331.101 207.29 332.106Z" fill="#5EC783"/>
<path d="M179.114 107.474C179.113 108.988 178.664 110.467 177.823 111.726C176.981 112.984 175.786 113.965 174.387 114.544C172.988 115.123 171.449 115.274 169.965 114.978C168.48 114.683 167.116 113.953 166.046 112.883C164.976 111.812 164.247 110.448 163.952 108.963C163.658 107.478 163.81 105.939 164.389 104.541C164.969 103.143 165.95 101.947 167.209 101.107C168.468 100.266 169.948 99.8175 171.462 99.8179C172.467 99.8179 173.462 100.016 174.391 100.401C175.32 100.786 176.163 101.35 176.874 102.061C177.585 102.771 178.148 103.616 178.532 104.544C178.917 105.473 179.114 106.469 179.114 107.474Z" fill="#5EC783"/>
</svg>
