<svg width="250" height="150" viewBox="0 0 512 512" fill="none" xmlns="http://www.w3.org/2000/svg">
<path d="M120.236 158.363L48.1309 230.473C45.2358 233.368 42.9392 236.805 41.3723 240.587C39.8055 244.37 38.999 248.424 38.999 252.518C38.999 256.612 39.8055 260.666 41.3723 264.449C42.9392 268.231 45.2358 271.668 48.1309 274.563L276.431 502.863C279.326 505.758 282.763 508.055 286.545 509.622C290.328 511.188 294.382 511.995 298.476 511.995C302.57 511.995 306.624 511.188 310.407 509.622C314.189 508.055 317.626 505.758 320.521 502.863L464.537 358.859C470.384 353.012 473.669 345.081 473.669 336.812C473.669 328.543 470.384 320.612 464.537 314.765L318.721 168.949C316.033 166.26 312.62 164.412 308.899 163.632C305.177 162.852 301.309 163.174 297.768 164.558C228.655 191.601 180.737 180.722 145.068 156.011C141.307 153.438 136.763 152.264 132.226 152.694C127.69 153.123 123.447 155.129 120.236 158.363Z" fill="#D2996F"/>
<path d="M138.936 153.207C135.639 152.371 132.182 152.407 128.904 153.311C125.625 154.215 122.638 155.956 120.236 158.363L48.1309 230.473C45.2358 233.368 42.9392 236.805 41.3723 240.587C39.8055 244.37 38.999 248.424 38.999 252.518C38.999 256.612 39.8055 260.666 41.3723 264.449C42.9392 268.231 45.2358 271.668 48.1309 274.563L145.592 372.024C120.398 306.527 112.236 216.734 138.936 153.207Z" fill="#C47B46"/>
<path d="M178.482 264.844L142.392 300.934C139.146 304.18 134.744 306.003 130.153 306.003C125.563 306.003 121.161 304.18 117.915 300.934L81.8289 264.844C80.2208 263.238 78.9451 261.33 78.0747 259.23C77.2043 257.13 76.7563 254.879 76.7563 252.606C76.7563 250.333 77.2043 248.082 78.0747 245.982C78.9451 243.882 80.2208 241.974 81.8289 240.367L117.915 204.277C121.161 201.032 125.563 199.209 130.153 199.209C134.744 199.209 139.146 201.032 142.392 204.277L178.482 240.367C181.727 243.613 183.55 248.016 183.55 252.606C183.55 257.196 181.727 261.598 178.482 264.844Z" fill="#C47B46"/>
<path d="M262.598 348.961L226.512 385.051C223.266 388.296 218.864 390.12 214.273 390.12C209.683 390.12 205.281 388.296 202.035 385.051L165.945 348.961C162.7 345.715 160.876 341.313 160.876 336.723C160.876 332.132 162.7 327.73 165.945 324.484L202.035 288.398C203.642 286.79 205.549 285.514 207.649 284.644C209.749 283.773 212 283.325 214.273 283.325C216.547 283.325 218.798 283.773 220.897 284.644C222.997 285.514 224.905 286.79 226.512 288.398L262.598 324.484C264.206 326.091 265.482 327.999 266.352 330.099C267.223 332.198 267.671 334.449 267.671 336.723C267.671 338.996 267.223 341.247 266.352 343.347C265.482 345.447 264.206 347.354 262.598 348.961Z" fill="#C47B46"/>
<path d="M346.721 264.844L310.631 300.934C307.385 304.18 302.983 306.003 298.392 306.003C293.802 306.003 289.4 304.18 286.154 300.934L250.068 264.844C248.46 263.238 247.184 261.33 246.314 259.23C245.443 257.13 244.995 254.879 244.995 252.606C244.995 250.333 245.443 248.082 246.314 245.982C247.184 243.882 248.46 241.974 250.068 240.367L286.154 204.277C289.4 201.032 293.802 199.209 298.392 199.209C302.983 199.209 307.385 201.032 310.631 204.277L346.721 240.367C349.966 243.613 351.789 248.016 351.789 252.606C351.789 257.196 349.966 261.598 346.721 264.844Z" fill="#C47B46"/>
<path d="M346.721 433.082L310.631 469.172C307.385 472.417 302.983 474.241 298.392 474.241C293.802 474.241 289.4 472.417 286.154 469.172L250.068 433.082C248.46 431.475 247.184 429.568 246.314 427.468C245.443 425.368 244.995 423.117 244.995 420.844C244.995 418.57 245.443 416.32 246.314 414.22C247.184 412.12 248.46 410.212 250.068 408.605L286.154 372.515C289.4 369.27 293.802 367.447 298.392 367.447C302.983 367.447 307.385 369.27 310.631 372.515L346.721 408.605C349.966 411.851 351.789 416.253 351.789 420.844C351.789 425.434 349.966 429.836 346.721 433.082Z" fill="#C47B46"/>
<path d="M430.842 348.961L394.752 385.051C391.506 388.296 387.104 390.12 382.513 390.12C377.923 390.12 373.521 388.296 370.275 385.051L334.185 348.961C330.94 345.715 329.116 341.313 329.116 336.723C329.116 332.132 330.94 327.73 334.185 324.484L370.275 288.398C371.882 286.79 373.789 285.514 375.889 284.644C377.989 283.773 380.24 283.325 382.513 283.325C384.787 283.325 387.038 283.773 389.137 284.644C391.237 285.514 393.145 286.79 394.752 288.398L430.842 324.484C434.087 327.73 435.91 332.132 435.91 336.723C435.91 341.313 434.087 345.715 430.842 348.961Z" fill="#C47B46"/>
<path d="M161.123 165.68C160.671 168.391 160.873 171.17 161.712 173.786C162.551 176.403 164.003 178.781 165.947 180.723L202.037 216.813C203.644 218.42 205.552 219.695 207.651 220.564C209.751 221.434 212.001 221.882 214.273 221.882C216.546 221.882 218.796 221.434 220.896 220.564C222.995 219.695 224.903 218.42 226.51 216.813L262.6 180.723C264.325 178.997 265.665 176.924 266.53 174.641C222.744 185.582 188.623 179.852 161.123 165.68Z" fill="#C47B46"/>
<path d="M202.26 31.176V101.938C202.26 103.708 202.646 105.456 203.392 107.062C204.137 108.667 205.224 110.091 206.575 111.233C207.927 112.375 209.512 113.209 211.219 113.676C212.926 114.144 214.715 114.233 216.46 113.938C258.55 106.786 299.694 82.028 329.644 17.333C330.511 15.4788 330.897 13.4357 330.766 11.3928C330.635 9.34993 329.99 7.37313 328.892 5.64528C327.795 3.91743 326.279 2.49432 324.485 1.50758C322.691 0.520838 320.678 0.00232509 318.631 0L233.431 0C225.163 0.00159106 217.235 3.28687 211.39 9.1333C205.544 14.9797 202.26 22.9086 202.26 31.176Z" fill="#D2996F"/>
<path d="M233.084 48.0079V99.047C233.084 102.665 234.224 106.191 236.342 109.125C265.815 99.699 293.99 79.625 317.213 40.9249C315.849 37.88 313.634 35.2945 310.834 33.4802C308.033 31.6659 304.768 30.7004 301.432 30.7H250.393C245.802 30.7 241.4 32.5234 238.154 35.7693C234.908 39.0151 233.084 43.4175 233.084 48.0079Z" fill="#C47B46"/>
<path d="M320.561 126.977V106.067C320.561 104.745 320.898 103.444 321.541 102.288C322.184 101.133 323.111 100.16 324.235 99.4628C325.358 98.7653 326.641 98.3659 327.962 98.3024C329.283 98.2389 330.598 98.5134 331.783 99.0999L351.083 108.659C352.339 109.281 353.403 110.231 354.163 111.409C354.923 112.586 355.351 113.947 355.401 115.347C355.451 116.748 355.121 118.136 354.447 119.365C353.773 120.593 352.779 121.617 351.571 122.327L332.271 133.682C331.09 134.375 329.747 134.744 328.377 134.751C327.008 134.758 325.661 134.404 324.473 133.723C323.284 133.043 322.297 132.061 321.61 130.876C320.923 129.691 320.561 128.346 320.561 126.977Z" fill="#D2996F"/>
<path d="M362.275 48.3001L369.541 67.0301C370.067 68.3861 370.934 69.5834 372.058 70.5059C373.182 71.4284 374.526 72.0448 375.959 72.2955C377.391 72.5462 378.864 72.4226 380.235 71.9367C381.606 71.4508 382.828 70.619 383.783 69.5221L398.963 52.0811C400 50.8898 400.681 49.4317 400.931 47.8724C401.18 46.3131 400.988 44.715 400.374 43.2598C399.761 41.8045 398.752 40.5503 397.462 39.6397C396.172 38.729 394.652 38.1984 393.076 38.1081L370.631 36.8151C369.22 36.7343 367.811 37.009 366.534 37.614C365.256 38.219 364.151 39.135 363.32 40.2779C362.488 41.4208 361.957 42.7542 361.774 44.1557C361.592 45.5573 361.764 46.9823 362.275 48.3001Z" fill="#D2996F"/>
</svg>
