<svg width="250" height="150" viewBox="0 0 512 512" fill="none" xmlns="http://www.w3.org/2000/svg">
<path d="M163.555 312.99L23.7927 452.752C18.1628 458.382 15 466.018 15 473.98C15 481.942 18.1628 489.577 23.7927 495.207C29.4226 500.837 37.0584 504 45.0202 504C52.9821 504 60.6178 500.837 66.2477 495.207L206.01 355.445L163.555 312.99Z" fill="#D6948C"/>
<path d="M482.181 269.887H408.737V354.548C408.83 357.474 407.876 360.337 406.048 362.623C404.219 364.909 401.635 366.467 398.76 367.019C397.42 367.552 395.993 367.831 394.551 367.843H376.741C374.211 367.867 371.729 367.157 369.596 365.798C367.462 364.439 365.769 362.49 364.721 360.188C362.856 357.941 361.874 355.091 361.961 352.172V278.791H285.55V318.927C286.009 325.827 279.65 332.227 272.85 332.227H259.49C258.199 332.229 256.915 332.047 255.677 331.687C249.922 331.031 244.71 327.017 244.71 319.525V174.9H171.266V228.393C171.266 239.333 160.194 243.37 152.501 240.204H136.7C129.046 243.258 118.554 239.62 118.554 228.986V100.525C78.0625 171.406 66.4845 271.671 118.83 324.015L195.011 400.2C259.369 464.558 398.016 432.2 463.355 366.858C467.457 362.757 471.344 358.445 475 353.942C477.523 350.834 479.916 347.659 482.18 344.416V269.887H482.181Z" fill="#FF8E9E"/>
<path d="M244.71 178.569V174.9H171.266V228.393C171.266 239.333 160.194 243.37 152.501 240.204H136.7C129.046 243.258 118.554 239.62 118.554 228.986V100.515C117.33 102.657 116.13 104.824 114.954 107.015C77.4109 177.409 68.0609 273.25 118.826 324.015L195.012 400.2C200.145 405.313 205.605 410.087 211.357 414.492C165.357 354.702 193.62 242.745 244.71 178.572V178.569Z" fill="#F46C86"/>
<path d="M477.648 148.2C462.067 127.831 441.959 111.367 418.917 100.11C407.289 76.3546 390.159 55.7178 368.95 39.9155C347.741 24.1132 323.067 13.6019 296.978 9.25557C270.889 4.90923 244.139 6.85341 218.953 14.9265C193.767 22.9995 170.871 36.9682 152.171 55.6711C138.04 69.8001 125.408 87.4271 114.958 107.022V232.274C114.958 236.502 115.852 240.682 117.58 244.54C119.309 248.398 121.833 251.847 124.988 254.662C128.142 257.477 131.856 259.593 135.885 260.872C139.915 262.151 144.169 262.565 148.37 262.085C163.677 260.397 174.958 246.885 174.958 231.485V211.939C174.958 203.983 178.118 196.352 183.744 190.726C189.37 185.1 197.001 181.939 204.958 181.939C210.325 181.94 215.591 183.399 220.193 186.162C224.794 188.924 228.558 192.885 231.083 197.622C233.619 202.251 234.952 207.444 234.958 212.722V311.146C234.958 326.546 246.239 340.056 261.546 341.746C265.746 342.226 270 341.813 274.03 340.533C278.059 339.254 281.773 337.138 284.928 334.323C288.082 331.509 290.607 328.059 292.335 324.201C294.064 320.343 294.957 316.163 294.958 311.935C294.958 303.979 298.118 296.348 303.744 290.722C309.37 285.096 317.001 281.935 324.958 281.935C342.217 281.935 354.958 296.371 354.958 312.72V351.932C354.957 356.16 355.85 360.341 357.578 364.2C359.306 368.059 361.83 371.509 364.985 374.325C368.14 377.14 371.854 379.257 375.884 380.537C379.914 381.816 384.169 382.23 388.37 381.75C403.677 380.062 414.958 366.55 414.958 351.15V301.939C414.958 293.983 418.118 286.352 423.744 280.726C429.37 275.1 437.001 271.939 444.958 271.939C462.231 271.939 474.958 286.388 474.958 302.724V352.272C474.958 352.825 474.973 353.393 475.002 353.938C498.477 324.922 511.504 288.849 511.984 251.528C512.465 214.207 500.37 177.811 477.648 148.2Z" fill="#FFCE71"/>
<path d="M418.917 100.11C407.289 76.3546 390.159 55.7178 368.95 39.9155C347.741 24.1132 323.067 13.6019 296.978 9.25557C270.889 4.90923 244.139 6.85341 218.953 14.9265C193.767 22.9995 170.871 36.9682 152.171 55.6711C138.04 69.8001 125.408 87.4271 114.958 107.022V232.274C114.958 236.502 115.852 240.682 117.58 244.54C119.309 248.398 121.833 251.847 124.988 254.662C128.142 257.477 131.856 259.593 135.885 260.872C139.915 262.151 144.169 262.565 148.37 262.085C163.677 260.397 174.958 246.885 174.958 231.485V211.939C174.958 203.983 178.118 196.352 183.744 190.726C189.37 185.1 197.001 181.939 204.958 181.939C210.325 181.94 215.591 183.399 220.193 186.162C224.794 188.924 228.558 192.885 231.083 197.622C239.112 184.954 248.468 173.177 258.991 162.489C298.219 123.263 368.042 91.9001 418.917 100.11Z" fill="#FFB357"/>
</svg>
