<svg width="250" height="150" viewBox="0 0 512 512" fill="none" xmlns="http://www.w3.org/2000/svg">
<path d="M78.215 316.32L108.449 471.72C110.657 483.062 116.74 493.283 125.657 500.632C134.574 507.981 145.769 512 157.324 512H369.4C380.955 512 392.149 507.981 401.066 500.631C409.982 493.282 416.064 483.061 418.271 471.719L448.5 316.32H78.215Z" fill="#B0F0EF"/>
<path d="M148.1 316.32L181.34 512H345.379L378.617 316.32H148.1Z" fill="#76E7E7"/>
<path d="M290.863 512L306.832 316.32H219.891L235.859 512H290.863Z" fill="#2EDDDA"/>
<path d="M263.359 27.98C63.711 27.98 28 199.57 28 251.73C27.999 268.972 32.7185 285.886 41.6467 300.636C50.5749 315.387 63.371 327.412 78.6475 335.407C93.924 343.403 111.098 347.063 128.307 345.992C145.516 344.92 162.103 339.158 176.27 329.33C181.146 325.92 186.953 324.092 192.903 324.092C198.853 324.092 204.66 325.92 209.536 329.33C225.343 340.297 244.123 346.174 263.362 346.174C282.601 346.174 301.381 340.297 317.188 329.33C322.064 325.92 327.869 324.092 333.819 324.092C339.769 324.092 345.574 325.92 350.45 329.33C364.617 339.158 381.204 344.92 398.413 345.992C415.622 347.063 432.796 343.403 448.072 335.407C463.349 327.412 476.145 315.387 485.073 300.636C494.001 285.886 498.721 268.972 498.72 251.73C498.719 199.57 463.012 27.98 263.359 27.98Z" fill="#FFC7A4"/>
<path d="M263.359 275.3C168.965 207.406 169.98 43.238 169.98 43.238C51.914 86.41 28 209.051 28 251.73C27.999 268.972 32.7185 285.886 41.6467 300.637C50.5749 315.387 63.371 327.412 78.6475 335.407C93.924 343.403 111.098 347.063 128.307 345.992C145.516 344.92 162.103 339.158 176.27 329.33C181.146 325.92 186.953 324.092 192.903 324.092C198.853 324.092 204.66 325.92 209.536 329.33C223.403 338.946 239.592 344.674 256.422 345.917C273.251 347.16 290.106 343.874 305.236 336.4C299.039 313.285 286.277 291.777 263.359 275.3Z" fill="#FFAA75"/>
<path d="M122.039 207.137C183.082 207.137 191.027 147.184 263.359 147.184C335.691 147.184 343.636 207.137 404.683 207.137C465.73 207.137 475.683 155.321 475.683 155.321C447.152 93.11 386.383 27.981 263.363 27.981C140.343 27.981 79.586 93.082 51.055 155.3C51.055 155.3 60.992 207.137 122.039 207.137Z" fill="#DD6642"/>
<path d="M122.039 207.137C154.961 207.137 172.439 189.7 192.898 173.637C169.578 108.437 169.98 43.2419 169.98 43.2419C107.3 66.1599 71.172 111.434 51.055 155.3C51.055 155.3 60.992 207.137 122.039 207.137Z" fill="#B24E2F"/>
<path d="M149.715 82.8001C149.715 88.3346 148.075 93.7449 145 98.3468C141.925 102.949 137.555 106.536 132.442 108.654C127.329 110.772 121.703 111.326 116.274 110.246C110.846 109.167 105.86 106.502 101.947 102.588C98.0333 98.6749 95.3682 93.6888 94.2886 88.2606C93.2089 82.8324 93.7632 77.206 95.8814 72.0929C97.9995 66.9798 101.586 62.6096 106.188 59.5351C110.79 56.4605 116.201 54.8197 121.735 54.8201C129.156 54.8203 136.272 57.7683 141.52 63.0155C146.767 68.2627 149.715 75.3794 149.715 82.8001Z" fill="#F4E74D"/>
<path d="M243.922 27.98C243.922 33.5143 242.282 38.9245 239.207 43.5263C236.133 48.1281 231.763 51.715 226.65 53.8332C221.537 55.9515 215.911 56.506 210.483 55.4267C205.055 54.3474 200.069 51.6828 196.155 47.7697C192.242 43.8566 189.576 38.8709 188.496 33.443C187.416 28.0151 187.97 22.3888 190.087 17.2756C192.205 12.1624 195.791 7.79196 200.392 4.71693C204.994 1.6419 210.404 0.000395648 215.938 7.14862e-08C219.613 -0.000262582 223.251 0.723253 226.646 2.12924C230.041 3.53522 233.126 5.59614 235.725 8.19432C238.323 10.7925 240.385 13.8771 241.791 17.2719C243.198 20.6667 243.922 24.3054 243.922 27.98Z" fill="#FFABCD"/>
<path d="M329.348 89.578C329.348 95.1121 327.706 100.522 324.631 105.123C321.556 109.725 317.186 113.311 312.073 115.428C306.96 117.546 301.334 118.1 295.906 117.02C290.479 115.94 285.493 113.275 281.58 109.362C277.666 105.449 275.002 100.463 273.922 95.0355C272.842 89.6077 273.396 83.9816 275.514 78.8687C277.631 73.7557 281.217 69.3855 285.819 66.3106C290.42 63.2358 295.83 61.5944 301.364 61.594C305.039 61.5936 308.678 62.3172 312.073 63.7233C315.469 65.1295 318.554 67.1908 321.153 69.7894C323.751 72.3881 325.812 75.4732 327.219 78.8685C328.625 82.2639 329.348 85.903 329.348 89.578Z" fill="#76E7E7"/>
<path d="M441.82 72.6641C441.82 78.1984 440.18 83.6086 437.105 88.2104C434.031 92.8122 429.661 96.3991 424.548 98.5173C419.435 100.636 413.809 101.19 408.381 100.111C402.953 99.0315 397.967 96.3668 394.053 92.4538C390.14 88.5407 387.474 83.555 386.394 78.1271C385.314 72.6992 385.868 67.0729 387.985 61.9597C390.103 56.8465 393.689 52.476 398.29 49.401C402.892 46.326 408.302 44.6845 413.836 44.6841C421.257 44.6849 428.374 47.6329 433.621 52.8799C438.869 58.1269 441.818 65.2432 441.82 72.6641Z" fill="#F9EE80"/>
</svg>
