<svg width="250" height="150" viewBox="0 0 512 512" fill="none" xmlns="http://www.w3.org/2000/svg">
<path d="M414.383 160.892C413.237 154.541 409.769 148.844 404.654 144.91C399.539 140.976 393.143 139.085 386.711 139.607C372.147 140.777 357.51 138.575 343.936 133.171C330.362 127.767 318.215 119.306 308.441 108.447C292.351 90.607 284.664 68.347 283.953 46.088C283.016 16.638 256.105 15.212 256 15.201C40.422 -6.02199 0 129.814 0 271.201C0 412.588 103.723 500.791 245.082 498.017C456.055 493.884 512 397.634 512 271.201C512 235.471 498.84 228.908 483.605 227.467C459.008 225.142 423.465 212.571 414.383 160.892Z" fill="#FFAA75"/>
<path d="M200.094 288.708C174.709 275.008 153.173 255.149 137.466 230.954C121.759 206.76 112.383 179.006 110.2 150.243C105.41 85.3449 121.84 27.5239 121.84 27.5239C22.262 64.4189 0 166.282 0 271.201C0 412.588 103.723 500.791 245.082 498.017C310.996 496.728 361.782 486.443 400.449 469.056C334.832 376.532 243.508 312.243 200.094 288.708Z" fill="#FF8C42"/>
<path d="M171.559 142.966L159.051 130.454C156.417 127.82 154.327 124.694 152.902 121.252C151.476 117.811 150.742 114.122 150.742 110.398C150.742 106.673 151.476 102.984 152.902 99.5429C154.327 96.1015 156.417 92.9748 159.051 90.341L171.559 77.829C176.88 72.5109 184.095 69.5234 191.617 69.5234C199.14 69.5234 206.355 72.5109 211.676 77.829L224.184 90.341C226.818 92.9748 228.908 96.1015 230.333 99.5429C231.759 102.984 232.493 106.673 232.493 110.398C232.493 114.122 231.759 117.811 230.333 121.252C228.908 124.694 226.818 127.82 224.184 130.454L211.676 142.966C209.042 145.6 205.915 147.69 202.473 149.115C199.031 150.541 195.343 151.275 191.617 151.275C187.892 151.275 184.204 150.541 180.762 149.115C177.32 147.69 174.193 145.6 171.559 142.966Z" fill="#DD6642"/>
<path d="M183.234 431.665L172.121 420.552C167.395 415.826 164.741 409.417 164.741 402.733C164.741 396.05 167.395 389.641 172.121 384.915L183.234 373.801C187.96 369.075 194.369 366.421 201.053 366.421C207.736 366.421 214.145 369.075 218.871 373.801L229.984 384.914C234.71 389.64 237.364 396.049 237.364 402.732C237.364 409.416 234.71 415.825 229.984 420.551L218.871 431.664C214.145 436.39 207.736 439.045 201.053 439.045C194.37 439.045 187.96 436.39 183.234 431.665Z" fill="#B24E2F"/>
<path d="M54.6879 256.501L45.5119 247.325C41.61 243.422 39.418 238.129 39.418 232.61C39.418 227.091 41.61 221.798 45.5119 217.895L54.6879 208.719C58.5902 204.817 63.8826 202.625 69.4009 202.625C74.9193 202.625 80.2117 204.817 84.1139 208.719L93.2899 217.895C97.1919 221.798 99.3839 227.091 99.3839 232.61C99.3839 238.129 97.1919 243.422 93.2899 247.325L84.1129 256.501C80.2108 260.403 74.9186 262.595 69.4004 262.595C63.8823 262.595 58.5901 260.403 54.6879 256.501Z" fill="#B24E2F"/>
<path d="M376.7 348.101L364.188 335.591C361.554 332.957 359.464 329.83 358.039 326.388C356.613 322.946 355.879 319.258 355.879 315.532C355.879 311.807 356.613 308.119 358.039 304.677C359.464 301.235 361.554 298.108 364.188 295.474L376.7 282.966C379.334 280.332 382.461 278.242 385.903 276.817C389.344 275.391 393.033 274.657 396.758 274.657C400.484 274.657 404.172 275.391 407.614 276.817C411.056 278.242 414.183 280.332 416.817 282.966L429.325 295.474C431.959 298.108 434.049 301.235 435.474 304.677C436.9 308.119 437.633 311.807 437.633 315.532C437.633 319.258 436.9 322.946 435.474 326.388C434.049 329.83 431.959 332.957 429.325 335.591L416.813 348.101C411.493 353.42 404.279 356.407 396.756 356.407C389.234 356.407 382.02 353.42 376.7 348.101Z" fill="#DD6642"/>
<path d="M257.7 266.101L245.188 253.591C242.554 250.957 240.464 247.83 239.039 244.388C237.613 240.946 236.879 237.258 236.879 233.532C236.879 229.807 237.613 226.119 239.039 222.677C240.464 219.235 242.554 216.108 245.188 213.474L257.7 200.966C260.334 198.332 263.461 196.242 266.903 194.817C270.344 193.391 274.033 192.657 277.758 192.657C281.484 192.657 285.172 193.391 288.614 194.817C292.056 196.242 295.183 198.332 297.817 200.966L310.325 213.474C312.959 216.108 315.049 219.235 316.474 222.677C317.9 226.119 318.633 229.807 318.633 233.532C318.633 237.258 317.9 240.946 316.474 244.388C315.049 247.83 312.959 250.957 310.325 253.591L297.813 266.101C292.493 271.42 285.279 274.407 277.756 274.407C270.234 274.407 263.02 271.42 257.7 266.101Z" fill="#DD6642"/>
</svg>
